<!DOCTYPE svg PUBLIC "-//W3C//DTD SVG 1.1//EN"
 "http://www.w3.org/Graphics/SVG/1.1/DTD/svg11.dtd">
<svg version="1.1"
 width="600px" height="274px"
 viewBox="0 0 600 274"
 xmlns="http://www.w3.org/2000/svg" shape-rendering="crispEdges"
 stroke-width="1" text-rendering="geometricPrecision">
<polygon fill="white" points="76,7 122,7 122,16 76,16"/>
<text x="100" y="16" textLength="45" font-family="Helvetica" font-size="12" fill="black" text-anchor="middle">

My Task
</text>
<polygon fill="white" points="274,7 324,7 324,16 274,16"/>
<text x="300" y="16" textLength="49" font-family="Helvetica" font-size="12" fill="black" text-anchor="middle">

SVC IRQ
</text>
<polygon fill="white" points="468,7 530,7 530,16 468,16"/>
<text x="500" y="16" textLength="61" font-family="Helvetica" font-size="12" fill="black" text-anchor="middle">

Some Task
</text>
<line x1="100" y1="22" x2="100" y2="50" stroke="black"/>
<line x1="300" y1="22" x2="300" y2="50" stroke="black"/>
<line x1="500" y1="22" x2="500" y2="50" stroke="black"/>
<line x1="100" y1="33" x2="300" y2="33" stroke="black"/>
<polygon fill="black" points="300,33 290,39 290,27"/>
<polygon fill="white" points="178,23 221,23 221,32 178,32"/>
<text x="179" y="32" textLength="41" font-family="Helvetica" font-size="12" fill="black">
SVC #1
</text>
<line x1="100" y1="50" x2="100" y2="78" stroke="black"/>
<line x1="300" y1="50" x2="300" y2="78" stroke="black"/>
<line x1="500" y1="50" x2="500" y2="78" stroke="black"/>
<polygon fill="white" points="408,50 592,50 592,72 408,72"/>
<line x1="408" y1="50" x2="592" y2="50" stroke="black"/>
<line x1="408" y1="72" x2="592" y2="72" stroke="black"/>
<line x1="408" y1="50" x2="408" y2="72" stroke="black"/>
<line x1="592" y1="50" x2="592" y2="72" stroke="black"/>
<polygon fill="white" points="465,57 533,57 533,66 465,66"/>
<text x="466" y="66" textLength="66" font-family="Helvetica" font-size="12" fill="black">
msg queued
</text>
<line x1="100" y1="78" x2="100" y2="106" stroke="black"/>
<line x1="300" y1="78" x2="300" y2="106" stroke="black"/>
<line x1="500" y1="78" x2="500" y2="106" stroke="black"/>
<line x1="300" y1="89" x2="100" y2="89" stroke="black" stroke-dasharray="2,2"/>
<polygon fill="black" points="100,89 110,95 110,83"/>
<polygon fill="white" points="176,79 223,79 223,88 176,88"/>
<text x="177" y="88" textLength="45" font-family="Helvetica" font-size="12" fill="black">
suspend
</text>
<line x1="100" y1="106" x2="100" y2="134" stroke="black"/>
<line x1="300" y1="106" x2="300" y2="134" stroke="black"/>
<line x1="500" y1="106" x2="500" y2="134" stroke="black"/>
<line x1="500" y1="117" x2="300" y2="117" stroke="black"/>
<polygon fill="black" points="300,117 310,123 310,111"/>
<polygon fill="white" points="378,107 421,107 421,116 378,116"/>
<text x="379" y="116" textLength="41" font-family="Helvetica" font-size="12" fill="black">
SVC #2
</text>
<line x1="100" y1="134" x2="100" y2="162" stroke="black"/>
<line x1="300" y1="134" x2="300" y2="162" stroke="black"/>
<line x1="500" y1="134" x2="500" y2="162" stroke="black"/>
<line x1="300" y1="145" x2="500" y2="145" stroke="black"/>
<polygon fill="black" points="500,145 490,151 490,139"/>
<polygon fill="white" points="376,135 422,135 422,144 376,144"/>
<text x="377" y="144" textLength="44" font-family="Helvetica" font-size="12" fill="black">
IPC Call
</text>
<line x1="100" y1="162" x2="100" y2="190" stroke="black"/>
<line x1="300" y1="162" x2="300" y2="190" stroke="black"/>
<line x1="500" y1="162" x2="500" y2="190" stroke="black"/>
<polygon fill="white" points="408,162 592,162 592,184 408,184"/>
<line x1="408" y1="162" x2="592" y2="162" stroke="black"/>
<line x1="408" y1="184" x2="592" y2="184" stroke="black"/>
<line x1="408" y1="162" x2="408" y2="184" stroke="black"/>
<line x1="592" y1="162" x2="592" y2="184" stroke="black"/>
<polygon fill="white" points="444,169 554,169 554,178 444,178"/>
<text x="445" y="178" textLength="108" font-family="Helvetica" font-size="12" fill="black">
copy &amp; process msg
</text>
<line x1="100" y1="190" x2="100" y2="218" stroke="black"/>
<line x1="300" y1="190" x2="300" y2="218" stroke="black"/>
<line x1="500" y1="190" x2="500" y2="218" stroke="black"/>
<line x1="500" y1="201" x2="300" y2="201" stroke="black"/>
<polygon fill="black" points="300,201 310,207 310,195"/>
<polygon fill="white" points="378,191 421,191 421,200 378,200"/>
<text x="379" y="200" textLength="41" font-family="Helvetica" font-size="12" fill="black">
SVC #0
</text>
<line x1="100" y1="218" x2="100" y2="246" stroke="black"/>
<line x1="300" y1="218" x2="300" y2="246" stroke="black"/>
<line x1="500" y1="218" x2="500" y2="246" stroke="black"/>
<line x1="300" y1="229" x2="100" y2="229" stroke="black"/>
<polygon fill="black" points="100,229 110,235 110,223"/>
<polygon fill="white" points="173,219 226,219 226,228 173,228"/>
<text x="174" y="228" textLength="51" font-family="Helvetica" font-size="12" fill="black">
IPC Send
</text>
<line x1="100" y1="246" x2="100" y2="274" stroke="black"/>
<line x1="300" y1="246" x2="300" y2="274" stroke="black"/>
<line x1="500" y1="246" x2="500" y2="274" stroke="black"/>
<line x1="300" y1="257" x2="100" y2="257" stroke="black" stroke-dasharray="2,2"/>
<polygon fill="black" points="100,257 110,263 110,251"/>
<polygon fill="white" points="178,247 220,247 220,256 178,256"/>
<text x="179" y="256" textLength="40" font-family="Helvetica" font-size="12" fill="black">
resume
</text>
<line x1="100" y1="268" x2="100" y2="274" stroke="black"/>
<line x1="300" y1="268" x2="300" y2="274" stroke="black"/>
<line x1="500" y1="268" x2="500" y2="274" stroke="black"/>
</svg>
