<!DOCTYPE svg PUBLIC "-//W3C//DTD SVG 1.1//EN"
 "http://www.w3.org/Graphics/SVG/1.1/DTD/svg11.dtd">
<svg version="1.1"
 width="600px" height="246px"
 viewBox="0 0 600 246"
 xmlns="http://www.w3.org/2000/svg" shape-rendering="crispEdges"
 stroke-width="1" text-rendering="geometricPrecision">
<polygon fill="white" points="76,7 122,7 122,16 76,16"/>
<text x="100" y="16" textLength="45" font-family="Helvetica" font-size="12" fill="black" text-anchor="middle">

My Task
</text>
<polygon fill="white" points="274,7 324,7 324,16 274,16"/>
<text x="300" y="16" textLength="49" font-family="Helvetica" font-size="12" fill="black" text-anchor="middle">

SVC IRQ
</text>
<polygon fill="white" points="468,7 530,7 530,16 468,16"/>
<text x="500" y="16" textLength="61" font-family="Helvetica" font-size="12" fill="black" text-anchor="middle">

Some Task
</text>
<line x1="100" y1="22" x2="100" y2="50" stroke="black"/>
<line x1="300" y1="22" x2="300" y2="50" stroke="black"/>
<line x1="500" y1="22" x2="500" y2="50" stroke="black"/>
<line x1="500" y1="33" x2="300" y2="33" stroke="black"/>
<polygon fill="black" points="300,33 310,39 310,27"/>
<polygon fill="white" points="378,23 421,23 421,32 378,32"/>
<text x="379" y="32" textLength="41" font-family="Helvetica" font-size="12" fill="black">
SVC #2
</text>
<line x1="100" y1="50" x2="100" y2="78" stroke="black"/>
<line x1="300" y1="50" x2="300" y2="78" stroke="black"/>
<line x1="500" y1="50" x2="500" y2="78" stroke="black"/>
<line x1="300" y1="61" x2="500" y2="61" stroke="black" stroke-dasharray="2,2"/>
<polygon fill="black" points="500,61 490,67 490,55"/>
<polygon fill="white" points="376,51 423,51 423,60 376,60"/>
<text x="377" y="60" textLength="45" font-family="Helvetica" font-size="12" fill="black">
suspend
</text>
<line x1="100" y1="78" x2="100" y2="106" stroke="black"/>
<line x1="300" y1="78" x2="300" y2="106" stroke="black"/>
<line x1="500" y1="78" x2="500" y2="106" stroke="black"/>
<polygon fill="white" points="408,78 592,78 592,100 408,100"/>
<line x1="408" y1="78" x2="592" y2="78" stroke="black"/>
<line x1="408" y1="100" x2="592" y2="100" stroke="black"/>
<line x1="408" y1="78" x2="408" y2="100" stroke="black"/>
<line x1="592" y1="78" x2="592" y2="100" stroke="black"/>
<polygon fill="white" points="470,85 529,85 529,94 470,94"/>
<text x="471" y="94" textLength="57" font-family="Helvetica" font-size="12" fill="black">
listening ...
</text>
<line x1="100" y1="106" x2="100" y2="134" stroke="black"/>
<line x1="300" y1="106" x2="300" y2="134" stroke="black"/>
<line x1="500" y1="106" x2="500" y2="134" stroke="black"/>
<line x1="100" y1="117" x2="300" y2="117" stroke="black"/>
<polygon fill="black" points="300,117 290,123 290,111"/>
<polygon fill="white" points="178,107 221,107 221,116 178,116"/>
<text x="179" y="116" textLength="41" font-family="Helvetica" font-size="12" fill="black">
SVC #0
</text>
<line x1="100" y1="134" x2="100" y2="162" stroke="black"/>
<line x1="300" y1="134" x2="300" y2="162" stroke="black"/>
<line x1="500" y1="134" x2="500" y2="162" stroke="black"/>
<line x1="300" y1="145" x2="500" y2="145" stroke="black"/>
<polygon fill="black" points="500,145 490,151 490,139"/>
<polygon fill="white" points="373,135 426,135 426,144 373,144"/>
<text x="374" y="144" textLength="51" font-family="Helvetica" font-size="12" fill="black">
IPC Send
</text>
<line x1="100" y1="162" x2="100" y2="190" stroke="black"/>
<line x1="300" y1="162" x2="300" y2="190" stroke="black"/>
<line x1="500" y1="162" x2="500" y2="190" stroke="black"/>
<line x1="300" y1="173" x2="500" y2="173" stroke="black" stroke-dasharray="2,2"/>
<polygon fill="black" points="500,173 490,179 490,167"/>
<polygon fill="white" points="378,163 420,163 420,172 378,172"/>
<text x="379" y="172" textLength="40" font-family="Helvetica" font-size="12" fill="black">
resume
</text>
<line x1="100" y1="190" x2="100" y2="218" stroke="black"/>
<line x1="300" y1="190" x2="300" y2="218" stroke="black"/>
<line x1="500" y1="190" x2="500" y2="218" stroke="black"/>
<polygon fill="white" points="408,190 592,190 592,212 408,212"/>
<line x1="408" y1="190" x2="592" y2="190" stroke="black"/>
<line x1="408" y1="212" x2="592" y2="212" stroke="black"/>
<line x1="408" y1="190" x2="408" y2="212" stroke="black"/>
<line x1="592" y1="190" x2="592" y2="212" stroke="black"/>
<polygon fill="white" points="473,197 526,197 526,206 473,206"/>
<text x="474" y="206" textLength="51" font-family="Helvetica" font-size="12" fill="black">
copy msg
</text>
<line x1="100" y1="218" x2="100" y2="246" stroke="black"/>
<line x1="300" y1="218" x2="300" y2="246" stroke="black"/>
<line x1="500" y1="218" x2="500" y2="246" stroke="black"/>
<line x1="300" y1="229" x2="100" y2="229" stroke="black" stroke-dasharray="2,2"/>
<polygon fill="black" points="100,229 110,235 110,223"/>
<polygon fill="white" points="192,219 207,219 207,228 192,228"/>
<text x="193" y="228" textLength="13" font-family="Helvetica" font-size="12" fill="black">
ok
</text>
<line x1="100" y1="240" x2="100" y2="246" stroke="black"/>
<line x1="300" y1="240" x2="300" y2="246" stroke="black"/>
<line x1="500" y1="240" x2="500" y2="246" stroke="black"/>
</svg>
