<!DOCTYPE svg PUBLIC "-//W3C//DTD SVG 1.1//EN"
 "http://www.w3.org/Graphics/SVG/1.1/DTD/svg11.dtd">
<svg version="1.1"
 width="600px" height="330px"
 viewBox="0 0 600 330"
 xmlns="http://www.w3.org/2000/svg" shape-rendering="crispEdges"
 stroke-width="1" text-rendering="geometricPrecision">
<polygon fill="white" points="76,7 122,7 122,16 76,16"/>
<text x="100" y="16" textLength="45" font-family="Helvetica" font-size="12" fill="black" text-anchor="middle">

My Task
</text>
<polygon fill="white" points="274,7 324,7 324,16 274,16"/>
<text x="300" y="16" textLength="49" font-family="Helvetica" font-size="12" fill="black" text-anchor="middle">

SVC IRQ
</text>
<polygon fill="white" points="468,7 530,7 530,16 468,16"/>
<text x="500" y="16" textLength="61" font-family="Helvetica" font-size="12" fill="black" text-anchor="middle">

Some Task
</text>
<line x1="100" y1="22" x2="100" y2="50" stroke="black"/>
<line x1="300" y1="22" x2="300" y2="50" stroke="black"/>
<line x1="500" y1="22" x2="500" y2="50" stroke="black"/>
<line x1="500" y1="33" x2="300" y2="33" stroke="black"/>
<polygon fill="black" points="300,33 310,39 310,27"/>
<polygon fill="white" points="378,23 421,23 421,32 378,32"/>
<text x="379" y="32" textLength="41" font-family="Helvetica" font-size="12" fill="black">
SVC #2
</text>
<line x1="100" y1="50" x2="100" y2="78" stroke="black"/>
<line x1="300" y1="50" x2="300" y2="78" stroke="black"/>
<line x1="500" y1="50" x2="500" y2="78" stroke="black"/>
<line x1="300" y1="61" x2="500" y2="61" stroke="black" stroke-dasharray="2,2"/>
<polygon fill="black" points="500,61 490,67 490,55"/>
<polygon fill="white" points="376,51 423,51 423,60 376,60"/>
<text x="377" y="60" textLength="45" font-family="Helvetica" font-size="12" fill="black">
suspend
</text>
<line x1="100" y1="78" x2="100" y2="106" stroke="black"/>
<line x1="300" y1="78" x2="300" y2="106" stroke="black"/>
<line x1="500" y1="78" x2="500" y2="106" stroke="black"/>
<polygon fill="white" points="408,78 592,78 592,100 408,100"/>
<line x1="408" y1="78" x2="592" y2="78" stroke="black"/>
<line x1="408" y1="100" x2="592" y2="100" stroke="black"/>
<line x1="408" y1="78" x2="408" y2="100" stroke="black"/>
<line x1="592" y1="78" x2="592" y2="100" stroke="black"/>
<polygon fill="white" points="470,85 529,85 529,94 470,94"/>
<text x="471" y="94" textLength="57" font-family="Helvetica" font-size="12" fill="black">
listening ...
</text>
<line x1="100" y1="106" x2="100" y2="134" stroke="black"/>
<line x1="300" y1="106" x2="300" y2="134" stroke="black"/>
<line x1="500" y1="106" x2="500" y2="134" stroke="black"/>
<line x1="100" y1="117" x2="300" y2="117" stroke="black"/>
<polygon fill="black" points="300,117 290,123 290,111"/>
<polygon fill="white" points="178,107 221,107 221,116 178,116"/>
<text x="179" y="116" textLength="41" font-family="Helvetica" font-size="12" fill="black">
SVC #1
</text>
<line x1="100" y1="134" x2="100" y2="162" stroke="black"/>
<line x1="300" y1="134" x2="300" y2="162" stroke="black"/>
<line x1="500" y1="134" x2="500" y2="162" stroke="black"/>
<line x1="300" y1="145" x2="100" y2="145" stroke="black" stroke-dasharray="2,2"/>
<polygon fill="black" points="100,145 110,151 110,139"/>
<polygon fill="white" points="176,135 223,135 223,144 176,144"/>
<text x="177" y="144" textLength="45" font-family="Helvetica" font-size="12" fill="black">
suspend
</text>
<line x1="100" y1="162" x2="100" y2="190" stroke="black"/>
<line x1="300" y1="162" x2="300" y2="190" stroke="black"/>
<line x1="500" y1="162" x2="500" y2="190" stroke="black"/>
<line x1="300" y1="173" x2="500" y2="173" stroke="black"/>
<polygon fill="black" points="500,173 490,179 490,167"/>
<polygon fill="white" points="376,163 422,163 422,172 376,172"/>
<text x="377" y="172" textLength="44" font-family="Helvetica" font-size="12" fill="black">
IPC Call
</text>
<line x1="100" y1="190" x2="100" y2="218" stroke="black"/>
<line x1="300" y1="190" x2="300" y2="218" stroke="black"/>
<line x1="500" y1="190" x2="500" y2="218" stroke="black"/>
<line x1="300" y1="201" x2="500" y2="201" stroke="black" stroke-dasharray="2,2"/>
<polygon fill="black" points="500,201 490,207 490,195"/>
<polygon fill="white" points="378,191 420,191 420,200 378,200"/>
<text x="379" y="200" textLength="40" font-family="Helvetica" font-size="12" fill="black">
resume
</text>
<line x1="100" y1="218" x2="100" y2="246" stroke="black"/>
<line x1="300" y1="218" x2="300" y2="246" stroke="black"/>
<line x1="500" y1="218" x2="500" y2="246" stroke="black"/>
<polygon fill="white" points="408,218 592,218 592,240 408,240"/>
<line x1="408" y1="218" x2="592" y2="218" stroke="black"/>
<line x1="408" y1="240" x2="592" y2="240" stroke="black"/>
<line x1="408" y1="218" x2="408" y2="240" stroke="black"/>
<line x1="592" y1="218" x2="592" y2="240" stroke="black"/>
<polygon fill="white" points="444,225 554,225 554,234 444,234"/>
<text x="445" y="234" textLength="108" font-family="Helvetica" font-size="12" fill="black">
copy &amp; process msg
</text>
<line x1="100" y1="246" x2="100" y2="274" stroke="black"/>
<line x1="300" y1="246" x2="300" y2="274" stroke="black"/>
<line x1="500" y1="246" x2="500" y2="274" stroke="black"/>
<line x1="500" y1="257" x2="300" y2="257" stroke="black"/>
<polygon fill="black" points="300,257 310,263 310,251"/>
<polygon fill="white" points="378,247 421,247 421,256 378,256"/>
<text x="379" y="256" textLength="41" font-family="Helvetica" font-size="12" fill="black">
SVC #0
</text>
<line x1="100" y1="274" x2="100" y2="302" stroke="black"/>
<line x1="300" y1="274" x2="300" y2="302" stroke="black"/>
<line x1="500" y1="274" x2="500" y2="302" stroke="black"/>
<line x1="300" y1="285" x2="100" y2="285" stroke="black"/>
<polygon fill="black" points="100,285 110,291 110,279"/>
<polygon fill="white" points="173,275 226,275 226,284 173,284"/>
<text x="174" y="284" textLength="51" font-family="Helvetica" font-size="12" fill="black">
IPC Send
</text>
<line x1="100" y1="302" x2="100" y2="330" stroke="black"/>
<line x1="300" y1="302" x2="300" y2="330" stroke="black"/>
<line x1="500" y1="302" x2="500" y2="330" stroke="black"/>
<line x1="300" y1="313" x2="100" y2="313" stroke="black" stroke-dasharray="2,2"/>
<polygon fill="black" points="100,313 110,319 110,307"/>
<polygon fill="white" points="178,303 220,303 220,312 178,312"/>
<text x="179" y="312" textLength="40" font-family="Helvetica" font-size="12" fill="black">
resume
</text>
<line x1="100" y1="324" x2="100" y2="330" stroke="black"/>
<line x1="300" y1="324" x2="300" y2="330" stroke="black"/>
<line x1="500" y1="324" x2="500" y2="330" stroke="black"/>
</svg>
